<?xml version="1.0" encoding="iso-8859-1"?>
<!-- Generator: Adobe Illustrator 19.0.0, SVG Export Plug-In . SVG Version: 6.00 Build 0)  -->
<svg version="1.1" id="Layer_1" xmlns="http://www.w3.org/2000/svg" xmlns:xlink="http://www.w3.org/1999/xlink" x="0px" y="0px"
	 viewBox="0 0 465 465" style="enable-background:new 0 0 465 465;" xml:space="preserve">
<path style="fill:#E5C400;" d="M320.003,370.908c0.369,8.338-4.496,15.781-7.66,17.219c-0.923-21.298-23.158-29.384-20.271-47.287
	c-25.989,5.487-31.476,38.406-31.476,38.406S247.892,363.074,247.603,350c-34.075,34.263-14.438,64.186,5.017,77.687
	c11.732,0,26.211,0,57.955,0S334.444,379.823,320.003,370.908z"/>
<path style="opacity:0.3;fill:#5B5B5F;enable-background:new    ;" d="M320.003,370.908c0.369,8.338-4.496,15.781-7.66,17.219
	c-0.923-21.298-23.158-29.384-20.271-47.287c-3.54,0.747-6.686,2.016-9.503,3.628v83.219c7.584,0,16.694,0,28.005,0
	C342.318,427.687,334.444,379.823,320.003,370.908z"/>
<rect x="212.157" y="417.13" style="fill:#C8523B;" width="142.288" height="37.87"/>
<path style="fill:#D8D9DD;" d="M402.082,255.906l-78.846-149.563V44.962c9.803-2.422,17.073-11.272,17.073-21.823l0,0
	c0-12.417-10.066-22.483-22.483-22.483h-70.515c-12.417,0-22.483,10.066-22.483,22.483l0,0c0,10.551,7.27,19.401,17.073,21.823
	v61.382l-78.845,149.563c-5.376,10.198,2.018,22.456,13.547,22.456h105.966h105.966
	C400.064,278.362,407.458,266.104,402.082,255.906z"/>
<path style="fill:#ABCB57;" d="M202.519,236.113l54.875-104.093h50.354l54.874,104.093c3.967,7.526-1.49,16.571-9.997,16.571
	h-140.11C204.008,252.685,198.551,243.639,202.519,236.113z"/>
<circle style="fill:#FFFFFF;" cx="282.569" cy="179.715" r="15.937"/>
<circle style="fill:#FFFFFF;" cx="251.438" cy="223.581" r="7.62"/>
<circle style="fill:#FFFFFF;" cx="320.735" cy="218.168" r="10.364"/>
<path style="opacity:0.3;fill:#5B5B5F;enable-background:new    ;" d="M282.569,0.656h35.257c12.417,0,22.483,10.066,22.483,22.483
	l0,0c0,10.551-7.27,19.401-17.073,21.823v61.382l78.846,149.563c5.376,10.198-2.018,22.456-13.547,22.456H282.569V45.621V0.656z"/>
<path style="fill:#59595A;" d="M74.089,445V85.482h152.774c3.633,7.061,10.987,11.894,19.475,11.894h73.924
	c12.092,0,21.894-9.802,21.894-21.894l0,0c0-12.092-9.802-21.894-21.894-21.894h-73.924c-8.488,0-15.842,4.833-19.475,11.894H74.089
	V0h-20v465H410.91v-20H74.089z"/>
<g>
</g>
<g>
</g>
<g>
</g>
<g>
</g>
<g>
</g>
<g>
</g>
<g>
</g>
<g>
</g>
<g>
</g>
<g>
</g>
<g>
</g>
<g>
</g>
<g>
</g>
<g>
</g>
<g>
</g>
</svg>
